<svg id="グループ化_1" data-name="グループ化 1" xmlns="http://www.w3.org/2000/svg" viewBox="0 0 30 30">
  <path id="パス_111" data-name="パス 111" d="M30,15A15,15,0,1,0,15,30h0a16.4,16.4,0,0,0,3-.3A15,15,0,0,0,30,15ZM15,2.1A12.888,12.888,0,0,1,25.17,22.92a10.6,10.6,0,0,0-6.75-7.44,5.733,5.733,0,0,1-7.02,0A10.686,10.686,0,0,0,4.68,22.8,13.081,13.081,0,0,1,2.1,15,12.919,12.919,0,0,1,15,2.1Zm4.44,25.02c-.03,0-.06.03-.09.03-.18.06-.33.12-.51.18h-.06a3.164,3.164,0,0,1-.57.15h-.03a3.858,3.858,0,0,1-.57.12h-.06c-.18.03-.39.06-.57.09h-.06c-.21.03-.39.06-.6.09h-.06c-.21.03-.42.03-.63.06H15.6a1.759,1.759,0,0,1-.6.06h-.6c-.15,0-.33-.03-.48-.03H13.8A12.688,12.688,0,0,1,6.51,24.6a8.583,8.583,0,0,1,4.71-6.81,7.905,7.905,0,0,0,7.44,0,8.618,8.618,0,0,1,4.74,6.96,12.586,12.586,0,0,1-3.57,2.19A4.176,4.176,0,0,1,19.44,27.12Z"/>
  <path id="パス_112" data-name="パス 112" d="M37.4,16.1a3.3,3.3,0,1,1-3.3,3.3,3.29,3.29,0,0,1,3.3-3.3m0-2.1a5.4,5.4,0,1,0,5.4,5.4A5.416,5.416,0,0,0,37.4,14Z" transform="translate(-22.4 -9.8)"/>
</svg>
