<?xml version="1.0" encoding="utf-8"?>
<!-- Generator: Adobe Illustrator 22.1.0, SVG Export Plug-In . SVG Version: 6.00 Build 0)  -->
<svg version="1.1" id="レイヤー_1" xmlns="http://www.w3.org/2000/svg" xmlns:xlink="http://www.w3.org/1999/xlink" x="0px"
	 y="0px" viewBox="0 0 361.7 181.7" style="enable-background:new 0 0 361.7 181.7;" xml:space="preserve">
<style type="text/css">
	.st0{fill:url(#SVGID_1_);}
	.st1{fill:url(#SVGID_2_);}
	.st2{fill:url(#SVGID_3_);}
	.st3{fill:url(#SVGID_4_);}
	.st4{fill:url(#SVGID_5_);}
	.st5{fill:url(#SVGID_6_);}
	.st6{fill:url(#SVGID_7_);}
	.st7{fill:url(#SVGID_8_);}
	.st8{fill:url(#SVGID_9_);}
	.st9{fill:url(#SVGID_10_);}
</style>
<title>logo</title>
<g>
	
		<linearGradient id="SVGID_1_" gradientUnits="userSpaceOnUse" x1="38.3414" y1="80.8808" x2="361.3414" y2="161.8808" gradientTransform="matrix(1 0 0 -1 0 175.4551)">
		<stop  offset="1.000000e-02" style="stop-color:#DA4135"/>
		<stop  offset="0.51" style="stop-color:#C43535"/>
		<stop  offset="1" style="stop-color:#C41835"/>
	</linearGradient>
	<path class="st0" d="M100.8,43.5c2.5,0,4.5-2,4.5-4.5c0,0,0,0,0,0V14.6C105.3,6.6,98.7,0,90.7,0h-75C7.6,0,1,6.5,1,14.6
		c0,0,0,0,0,0v152.5c0,8.1,6.5,14.6,14.6,14.6h75c8.1,0,14.6-6.6,14.6-14.6v-42.3c0-2.5-2-4.5-4.5-4.5s-4.5,2-4.5,4.5V137H10V26.8
		h86.3V39C96.3,41.5,98.3,43.5,100.8,43.5C100.8,43.5,100.8,43.5,100.8,43.5z M10,167.1V146h86.3v21.1c0,3.1-2.5,5.7-5.7,5.7h-75
		C12.5,172.8,10,170.2,10,167.1z M96.3,14.6v3.2H10v-3.2c0-3.1,2.5-5.6,5.6-5.6h75C93.7,9,96.3,11.5,96.3,14.6z"/>
	
		<linearGradient id="SVGID_2_" gradientUnits="userSpaceOnUse" x1="54.5119" y1="16.3985" x2="377.5119" y2="97.3985" gradientTransform="matrix(1 0 0 -1 0 175.4551)">
		<stop  offset="1.000000e-02" style="stop-color:#DA4135"/>
		<stop  offset="0.51" style="stop-color:#C43535"/>
		<stop  offset="1" style="stop-color:#C41835"/>
	</linearGradient>
	<path class="st1" d="M53.1,149.6c-5.4,0-9.8,4.4-9.8,9.9c0,5.4,4.4,9.8,9.9,9.8c5.4,0,9.8-4.4,9.8-9.8
		C63,154,58.6,149.6,53.1,149.6C53.2,149.6,53.1,149.6,53.1,149.6z"/>
</g>
<g>
	<linearGradient id="SVGID_3_" gradientUnits="userSpaceOnUse" x1="-4.9005" y1="67.6108" x2="341.3109" y2="154.4316">
		<stop  offset="1.237221e-02" style="stop-color:#DA4135"/>
		<stop  offset="0.5145" style="stop-color:#C43535"/>
		<stop  offset="1" style="stop-color:#C41835"/>
	</linearGradient>
	<path class="st2" d="M42.8,105.8V57.2h12.6c3.2,0,6.1,0.6,8.8,1.7c2.6,1.1,4.9,2.6,6.7,4.6c1.9,2,3.3,4.3,4.3,7.1
		c1,2.7,1.5,5.7,1.5,9v4c0,3.3-0.5,6.3-1.5,9c-1,2.7-2.4,5.1-4.3,7c-1.8,2-4,3.5-6.6,4.6c-2.6,1.1-5.4,1.6-8.5,1.6H42.8z M52.3,64.9
		v33.4h3.6c1.8,0,3.3-0.3,4.7-1c1.4-0.7,2.6-1.6,3.5-2.9c1-1.3,1.7-2.8,2.2-4.6c0.5-1.8,0.8-3.9,0.8-6.2v-4.1c0-2.2-0.3-4.2-0.8-6
		c-0.5-1.8-1.2-3.3-2.2-4.6c-1-1.3-2.2-2.3-3.7-3c-1.5-0.7-3.1-1.1-5.1-1.1H52.3z"/>
	<linearGradient id="SVGID_4_" gradientUnits="userSpaceOnUse" x1="-2.0557" y1="56.2668" x2="344.1556" y2="143.0876">
		<stop  offset="1.237221e-02" style="stop-color:#DA4135"/>
		<stop  offset="0.5145" style="stop-color:#C43535"/>
		<stop  offset="1" style="stop-color:#C41835"/>
	</linearGradient>
	<path class="st3" d="M111.8,84.5h-20v13.7h23.3v7.6H82.4V57.2h32.6v7.6H91.8v12.2h20V84.5z"/>
	<linearGradient id="SVGID_5_" gradientUnits="userSpaceOnUse" x1="0.6365" y1="45.5309" x2="346.8479" y2="132.3518">
		<stop  offset="1.237221e-02" style="stop-color:#DA4135"/>
		<stop  offset="0.5145" style="stop-color:#C43535"/>
		<stop  offset="1" style="stop-color:#C41835"/>
	</linearGradient>
	<path class="st4" d="M136.9,92.3l9.2-35h10.3l-14.7,48.6h-9.5l-14.7-48.6h10.3L136.9,92.3z"/>
	<linearGradient id="SVGID_6_" gradientUnits="userSpaceOnUse" x1="2.3111" y1="38.8532" x2="348.5225" y2="125.674">
		<stop  offset="1.237221e-02" style="stop-color:#DA4135"/>
		<stop  offset="0.5145" style="stop-color:#C43535"/>
		<stop  offset="1" style="stop-color:#C41835"/>
	</linearGradient>
	<path class="st5" d="M158.5,57.2h28.1v7.6h-9.5v33.5h9.5v7.5h-28.1v-7.5h9.2V64.8h-9.2V57.2z"/>
	<linearGradient id="SVGID_7_" gradientUnits="userSpaceOnUse" x1="4.3128" y1="30.8712" x2="350.5242" y2="117.692">
		<stop  offset="1.237221e-02" style="stop-color:#DA4135"/>
		<stop  offset="0.5145" style="stop-color:#C43535"/>
		<stop  offset="1" style="stop-color:#C41835"/>
	</linearGradient>
	<path class="st6" d="M223.7,90.6c-0.2,2.4-0.7,4.7-1.6,6.6c-0.9,2-2.1,3.6-3.6,5c-1.5,1.4-3.3,2.4-5.4,3.2
		c-2.1,0.7-4.4,1.1-6.9,1.1c-2.9,0-5.4-0.5-7.6-1.6c-2.2-1.1-4.1-2.5-5.6-4.4c-1.5-1.9-2.7-4.2-3.5-6.9c-0.8-2.7-1.2-5.6-1.2-8.8
		v-6.5c0-3.2,0.4-6.2,1.3-8.8c0.8-2.7,2-5,3.6-6.9c1.6-1.9,3.4-3.4,5.7-4.5c2.2-1.1,4.7-1.6,7.5-1.6c2.7,0,5,0.4,7.1,1.1
		c2.1,0.8,3.9,1.8,5.3,3.2c1.5,1.4,2.6,3.1,3.5,5.1c0.8,2,1.4,4.3,1.6,6.8h-9.3c-0.1-1.4-0.3-2.7-0.7-3.8c-0.3-1.1-0.8-2-1.5-2.7
		c-0.7-0.7-1.5-1.3-2.5-1.6c-1-0.4-2.2-0.6-3.6-0.6c-1.4,0-2.7,0.3-3.8,0.9c-1.1,0.6-2,1.5-2.7,2.7c-0.7,1.2-1.2,2.7-1.6,4.4
		c-0.3,1.7-0.5,3.7-0.5,6v6.6c0,4.8,0.7,8.3,2,10.6c1.3,2.3,3.5,3.4,6.4,3.4c2.4,0,4.4-0.6,5.8-2c1.4-1.3,2.2-3.4,2.4-6.3H223.7z"/>
	<linearGradient id="SVGID_8_" gradientUnits="userSpaceOnUse" x1="6.638" y1="21.5991" x2="352.8494" y2="108.42">
		<stop  offset="1.237221e-02" style="stop-color:#DA4135"/>
		<stop  offset="0.5145" style="stop-color:#C43535"/>
		<stop  offset="1" style="stop-color:#C41835"/>
	</linearGradient>
	<path class="st7" d="M258.7,84.5h-20v13.7h23.3v7.6h-32.7V57.2H262v7.6h-23.2v12.2h20V84.5z"/>
	<linearGradient id="SVGID_9_" gradientUnits="userSpaceOnUse" x1="9.646" y1="9.6042" x2="355.8574" y2="96.425">
		<stop  offset="1.237221e-02" style="stop-color:#DA4135"/>
		<stop  offset="0.5145" style="stop-color:#C43535"/>
		<stop  offset="1" style="stop-color:#C41835"/>
	</linearGradient>
	<path class="st8" d="M303.1,87.7H296v18.2h-9.4V57.2h16.3c2.7,0,5.1,0.3,7.3,1c2.2,0.6,4,1.6,5.6,2.8c1.5,1.2,2.7,2.7,3.6,4.6
		c0.8,1.8,1.3,3.9,1.3,6.3c0,1.7-0.2,3.3-0.6,4.7c-0.4,1.4-1,2.6-1.8,3.7c-0.8,1.1-1.7,2.1-2.8,2.9c-1.1,0.8-2.3,1.5-3.6,2.1
		l10.4,20.1v0.4h-10L303.1,87.7z M296,80.1h6.9c2.6,0,4.7-0.7,6.1-2c1.4-1.3,2.2-3.2,2.2-5.5c0-2.4-0.7-4.3-2.1-5.7
		c-1.4-1.3-3.5-2-6.2-2H296V80.1z"/>
	<linearGradient id="SVGID_10_" gradientUnits="userSpaceOnUse" x1="12.5059" y1="-1.8" x2="358.7173" y2="85.0208">
		<stop  offset="1.237221e-02" style="stop-color:#DA4135"/>
		<stop  offset="0.5145" style="stop-color:#C43535"/>
		<stop  offset="1" style="stop-color:#C41835"/>
	</linearGradient>
	<path class="st9" d="M352.8,93.2c0-0.9-0.2-1.7-0.5-2.4c-0.3-0.8-0.8-1.5-1.5-2.1c-0.7-0.7-1.7-1.3-2.8-1.8
		c-1.2-0.5-2.6-1.1-4.4-1.5c-2.1-0.6-4.1-1.3-6.1-2.2c-1.9-0.9-3.6-1.9-5.1-3.1c-1.5-1.2-2.6-2.6-3.5-4.3c-0.9-1.6-1.3-3.5-1.3-5.6
		c0-2,0.4-3.9,1.3-5.6c0.9-1.7,2.1-3.1,3.6-4.3c1.5-1.2,3.3-2.1,5.4-2.7c2.1-0.6,4.4-1,6.8-1c2.5,0,4.9,0.4,7,1.1
		c2.1,0.7,3.9,1.8,5.4,3.1c1.5,1.3,2.7,2.9,3.5,4.7c0.8,1.8,1.3,3.8,1.3,6h-9.1c0-1.1-0.2-2.1-0.6-3c-0.3-0.9-0.9-1.7-1.5-2.4
		c-0.7-0.7-1.5-1.2-2.5-1.5c-1-0.4-2.2-0.6-3.6-0.6c-1.2,0-2.4,0.2-3.3,0.5c-1,0.3-1.8,0.7-2.5,1.3c-0.7,0.5-1.2,1.2-1.5,1.9
		c-0.3,0.7-0.5,1.6-0.5,2.4c0,0.9,0.2,1.7,0.7,2.5c0.5,0.7,1.1,1.4,2,2c0.9,0.6,1.9,1.1,3.2,1.6c1.2,0.5,2.6,0.9,4.2,1.4
		c2.2,0.6,4.3,1.4,6.1,2.4c1.9,0.9,3.5,2,4.8,3.3c1.3,1.3,2.4,2.7,3.1,4.4c0.7,1.6,1.1,3.5,1.1,5.5c0,2.1-0.4,4-1.3,5.7
		c-0.9,1.7-2,3.1-3.6,4.2s-3.3,2-5.4,2.6c-2.1,0.6-4.4,0.9-6.8,0.9c-1.5,0-3.1-0.1-4.6-0.4c-1.5-0.3-3-0.7-4.4-1.3
		c-1.4-0.6-2.7-1.3-3.9-2.2c-1.2-0.9-2.2-1.9-3.1-3s-1.6-2.5-2.1-3.9c-0.5-1.5-0.8-3.1-0.8-4.9h9.2c0,1.5,0.3,2.7,0.8,3.8
		c0.5,1,1.1,1.9,2,2.6c0.8,0.7,1.8,1.2,3,1.5c1.2,0.3,2.5,0.5,3.9,0.5c1.2,0,2.4-0.1,3.3-0.4c1-0.3,1.8-0.7,2.5-1.2
		c0.7-0.5,1.2-1.1,1.5-1.9S352.8,94,352.8,93.2z"/>
</g>
</svg>
